# xmcd
#
# Track frame offsets: 
#        150
#        13841
#        30497
#        49112
#        64801
#        80165
#        94423
#        110430
#        126660
#        142485
#
# Disc length: 2096 seconds
#
# Revision: 1
# Processed by: cddbd v1.5.2PL0 Copyright (c) Steve Scherf et al.
# Submitted via: ExactAudioCopy v1.0b1
#
DISCID=99082e0a
DTITLE=Shane Yellowbird - It's About Time
DYEAR=2009
DGENRE=Country
TTITLE0=Bare Feet on The Blacktop
TTITLE1=Watching You Walk Away
TTITLE2=I Get That A Lot These Days
TTITLE3=I Can Help You With That
TTITLE4=My Kind Of Crowd
TTITLE5=Next Time I Leave
TTITLE6=Nothing Between Me and You
TTITLE7=Sedona Arizona
TTITLE8=Pabst Blue Ribbon
TTITLE9=It's About Time
EXTD=
EXTT0=
EXTT1=
EXTT2=
EXTT3=
EXTT4=
EXTT5=
EXTT6=
EXTT7=
EXTT8=
EXTT9=
PLAYORDER=
